<?xml version="1.0" encoding="utf-8" ?>
<svg baseProfile="full" height="300mm" version="1.1" viewBox="0,0,200,300" width="200mm" xmlns="http://www.w3.org/2000/svg" xmlns:ev="http://www.w3.org/2001/xml-events" xmlns:xlink="http://www.w3.org/1999/xlink"><defs /><rect fill="#222222" height="300" width="200" x="0" y="0" /><text fill="#FFFFFF" style="font-size:12px; font-family:Arial; font-weight:bold;" x="10" y="20">Over 10km Workouts</text><text fill="#FFFFFF" style="font-size:4px; font-family:Arial" x="10" y="280">ATHLETE</text><text fill="#FFFFFF" style="font-size:9px; font-family:Arial" x="10" y="290">kiss4u</text><text fill="#FFFFFF" style="font-size:4px; font-family:Arial" x="120" y="280">STATISTICS</text><text fill="#FFFFFF" style="font-size:3px; font-family:Arial" x="120" y="285">Number: 1</text><text fill="#FFFFFF" style="font-size:3px; font-family:Arial" x="120" y="290">Weekly: 1.0</text><text fill="#FFFFFF" style="font-size:3px; font-family:Arial" x="141" y="285">Total: 15.3 km</text><text fill="#FFFFFF" style="font-size:3px; font-family:Arial" x="141" y="290">Avg: 15.3 km</text><text fill="#FFFFFF" style="font-size:3px; font-family:Arial" x="167" y="285">Min: 15.3 km</text><text fill="#FFFFFF" style="font-size:3px; font-family:Arial" x="167" y="290">Max: 15.3 km</text><polyline fill="none" points="101.36426300054882,146.9200783410197 101.83279776852578,129.22294953685196 102.82498904177919,121.02140889591828 105.82912373007275,107.78325701635913 106.84887587185949,93.86084412210039 104.86449332570191,85.47823570134642 104.20303247671109,77.09534124958736 103.48644989053719,74.39692380763881 101.77767603110988,71.84239465082646 99.87597609078512,70.25929282708967 95.93477186665405,69.0 92.40698067296762,69.4317582679505 89.26504164130893,71.26672244070505 81.79604622337501,79.29003224530607 79.3706897777738,83.64337767784309 78.4336202419363,87.49296598143701 77.90996373677626,98.64563830375846 78.73678979766555,102.96266587208083 78.65410719148349,102.53096652856038 78.29581589845475,102.74681629514089 78.4336202419363,102.02731633583608 80.72117234405596,110.0136477817432 80.99678103125188,107.67533436907979 80.3628810509108,107.49546318482317 80.28019844496157,107.96312798997678 80.58336800069083,106.66805404133629 79.94946802046616,105.76869311643532 81.16214624326676,109.1862471181521 80.4731245257426,112.99946179043036 70.27560310671106,124.69055302051129 63.13733811338898,129.47474689209776 60.381251243292354,131.92076491717307 55.227368796477094,139.69030773974373 54.014690573560074,143.4670801089669 54.400542735354975,147.35169970884454 56.35736441297922,150.87657917239994 60.381251243292354,154.185603682723 63.688555487198755,156.1997707025148 63.79879896203056,155.87606640189188 63.49562940641772,156.41557333280798 70.38584658142645,161.45091424696147 75.9531420590356,167.27739427355118 78.68166806024965,172.52830115609686 80.0872723639477,180.4404147385212 80.3628810509108,180.11674236076942 80.58336800069083,181.01583124637546 80.14239410148002,184.8279315896798 80.91409842495341,185.8348916212417 80.61092886922415,184.50426498925663 80.11483323271386,187.02166064850462 78.65410719148349,189.1074832365557 74.40973341162317,191.5529078700929 75.23655947274528,192.20022208360024 77.88240286789369,192.59580215267488 77.8272811305942,193.92638498613087 79.94946802046616,196.58752904752328 82.18189838528633,197.1269466295489 80.55580713192467,197.3786744295212 80.25263757619541,198.74519227424753 80.19751583889592,200.14766321638308 83.4221374768531,202.08953285087773 81.54799840517808,206.0811055970844 90.86357202578802,215.21473095008696 85.32383741706144,218.05543501125067 84.91042438650038,219.9252476204856 85.40652002312709,222.909726745871 87.74919386266265,225.3188581695722 88.90675034816377,225.28290115771233 89.18235903501045,227.15265880378138 91.71795895555988,229.02240223139233 91.35966766241472,229.66961779761186 91.91088503645733,229.99322494173248 91.69039808691014,230.82021904202702 93.06844152184203,230.06513758259825 93.45429368363693,231.0 94.74965451250318,230.60448171879398 94.61185016902164,230.17300650455581 97.11988922068849,230.28087537904503 98.056958756526,228.8785763187334 100.78548475797288,226.6133070957876 103.26596294099,227.00883179731318 103.45888902188744,226.36160922716954 102.49425861740019,224.85141660482623 102.13596732413862,223.08951348814298 102.30133253638633,222.47823802822677 103.62425423401874,222.62206768494798 102.60450209199917,221.2197249430028 104.7542498507537,219.88928981981007 106.73863239726052,219.5297115236317 107.45521498343442,217.8037283817539 108.6678932061186,217.8037283817539 111.06568878318649,216.65306622239586 115.28250169428065,216.18560818182596 117.51493205910083,213.23700621095486 117.43224945291877,211.72673296983703 118.09371030167677,211.0075519751117 118.58980593830347,210.8996746443736 119.00321896886453,212.01440477873257 118.53468420100398,210.79179726651637 119.55443634279072,211.3311836830544 121.81442757626064,210.75583812990226 121.04272325267084,210.5041240269784 122.1175971319899,210.00069504806015 122.39320581895299,209.10171216460003 124.92880573950242,208.20272599371674 125.56270571949426,204.8584685781534 125.14929268904962,203.67178565666836 126.03124048747122,203.8156263158453 126.49977525521535,203.38410408583877 127.16123610420618,204.3550280383206 128.62196214520372,203.8875466139143 130.49610121687874,204.06734726694413 132.37024028843734,203.67178565666836 132.7285315815825,203.2402631740406 132.42536202596966,202.7008590057667 133.05926200607792,203.56390510694473 135.31925323943142,204.03138714685338 134.51998804707546,201.69396805821452 137.19339231099002,200.18362390450784 138.43363140244037,197.45059661078267 143.1189790816279,194.71753893230925 144.44190077926032,193.45888373018533 145.04823989060242,191.37309806389385 145.9853094263235,191.08540210033243 143.0087356067961,190.86962990679604 145.84750508295838,191.22925012430642 145.21360510285012,191.40906003561395 144.8828746783547,192.1642602274951 144.68994859757368,190.25827432979713 145.15848336543422,189.57499276786984 138.90216617041733,188.9636339710123 137.52412273548543,189.6109550026449 118.97565810009837,185.22352352258167 118.94809723144863,186.33837009016133 115.83371906832326,185.6910404406808 111.6169061572291,183.20959432574455 105.22278461861424,173.89495715292287 100.81304562662262,166.37825513385178 100.48231520224363,162.52990245026012 101.52962821279652,153.14254641722073 101.63987168762833,145.91295886819717" stroke="yellow" stroke-linecap="round" stroke-linejoin="round" stroke-width="0.5"><title>2022-12-10 15.3km</title></polyline></svg>