<?xml version="1.0" encoding="utf-8" ?>
<svg baseProfile="full" height="300mm" version="1.1" viewBox="0,0,200,300" width="200mm" xmlns="http://www.w3.org/2000/svg" xmlns:ev="http://www.w3.org/2001/xml-events" xmlns:xlink="http://www.w3.org/1999/xlink"><defs /><rect fill="#222222" height="300" width="200" x="0" y="0" /><text fill="#FFFFFF" style="font-size:12px; font-family:Arial; font-weight:bold;" x="10" y="20">Over 10km Workouts</text><text fill="#FFFFFF" style="font-size:4px; font-family:Arial" x="10" y="280">ATHLETE</text><text fill="#FFFFFF" style="font-size:9px; font-family:Arial" x="10" y="290">kiss4u</text><text fill="#FFFFFF" style="font-size:4px; font-family:Arial" x="120" y="280">STATISTICS</text><text fill="#FFFFFF" style="font-size:3px; font-family:Arial" x="120" y="285">Number: 2</text><text fill="#FFFFFF" style="font-size:3px; font-family:Arial" x="120" y="290">Weekly: 1.0</text><text fill="#FFFFFF" style="font-size:3px; font-family:Arial" x="141" y="285">Total: 24.8 km</text><text fill="#FFFFFF" style="font-size:3px; font-family:Arial" x="141" y="290">Avg: 12.4 km</text><text fill="#FFFFFF" style="font-size:3px; font-family:Arial" x="167" y="285">Min: 9.5 km</text><text fill="#FFFFFF" style="font-size:3px; font-family:Arial" x="167" y="290">Max: 15.3 km</text><polyline fill="none" points="100.90950866718777,87.94671889401798 101.22186517901719,76.14863302456797 101.8833260278916,70.68093926394067 103.88608248683158,61.85550467757275 104.56591724802274,52.57389608140511 103.24299555050675,46.98549046755943 102.80202165117953,41.396894166391576 102.3242999271024,39.59794920508284 101.18511735415086,37.89492976722249 99.91731739393435,36.83952855136886 97.2898479111027,36.0 94.93798711535055,36.28783884529548 92.84336109424476,37.51114829382277 87.86403081566095,42.86002149684646 86.24712651851587,45.76225178522873 85.62241349474061,48.32864398762467 85.27330915792845,55.76375886917231 85.82452653185464,58.64177724804904 85.76940479443874,58.35397768570692 85.53054393245839,58.497877530098776 85.62241349474061,58.018210890557384 87.14744822948705,63.34243185450032 87.33118735416792,61.78355624600954 86.90858736727387,61.66364212321059 86.8534656300908,61.975418660003925 87.05557866720483,61.11203602756723 86.63297868031077,60.51246207761869 87.44143082888331,62.7908314121014 86.98208301723935,65.33297452694387 80.18373540451284,73.12703534700267 75.42489207559265,76.31649792805547 73.58750082890037,77.94717661145842 70.151579197729,83.12687182650552 69.34312704904005,85.64472007265431 69.60036182356998,88.23446647256787 70.90490960876923,90.5843861149333 73.58750082890037,92.79040245516808 75.79237032495439,94.13318046838685 75.86586597480346,93.91737760126125 75.66375293768942,94.2770488885435 80.25723105436191,97.63394283130765 83.9687613727292,101.51826284902927 85.78777870698832,105.01886743743671 86.72484824270941,110.29360982567596 86.90858736727387,110.0778282405081 87.05557866720483,110.67722083091212 86.76159606769215,113.21862105978653 87.27606561675202,113.88992774749931 87.07395257952157,113.00284332617593 86.74322215514258,114.68110709900793 85.76940479443874,116.07165549103229 82.93982227449305,117.70193858008133 83.49103964865208,118.13348138907168 85.25493524537887,118.39720143511659 85.21818742051255,119.28425665742543 86.63297868031077,121.05835269833915 88.12126559019089,121.41796441969927 87.03720475465525,121.58578295305779 86.83509171754122,122.49679484948865 86.7983438926749,123.43177547758387 88.948091651313,124.72635523391364 87.69866560352966,127.38740373137989 93.90904801734723,133.47648730005312 90.2158916114131,135.37029000750044 89.94028292445,136.61683174698555 90.271013348829,138.6064844972716 91.83279590855818,140.21257211304328 92.60450023214798,140.18860077181307 92.78823935671244,141.43510586918273 94.47863930370659,142.6816014875949 94.23977844172623,143.1130785317364 94.60725669097155,143.32881662782165 94.46026539127342,143.8801460280083 95.37896101467777,143.37675838841824 95.6361957892077,144.0 96.49976967507973,143.7363211458578 96.4079001127975,143.44867100303236 98.07992614724208,143.52058358605427 98.70463917113375,142.58571754582226 100.52365650539286,141.0755380638584 102.17730862740427,141.33922119821364 102.30592601466924,140.9077394847991 101.6628390783444,139.90094440321263 101.42397821613122,138.7263423254335 101.53422169096302,138.31882535215118 102.41616948950104,138.41471178997017 101.73633472807705,137.47981662866368 103.16949990054127,136.59285987989279 104.49242159817368,136.35314101577387 104.97014332236722,135.20248558784078 105.77859547082335,135.20248558784078 107.37712585553527,134.43537748159724 110.18833446293138,134.12373878787912 111.6766213728115,132.15800414062687 111.62149963527918,131.15115531322954 112.06247353448998,130.6717013167363 112.3932039589854,130.5997830962442 112.66881264594849,131.34293651915505 112.35645613411907,130.52786484433454 113.03629089531023,130.88745578873204 114.54295171762351,130.50389208660636 114.02848216856364,130.3360826846474 114.74506475473754,130.00046336537343 114.92880387941841,129.4011414430861 116.61920382641256,128.8018173291348 117.04180381307378,126.57231238541135 116.76619512611069,125.78119043777406 117.35416032501962,125.87708421058778 117.66651683696546,125.58940272389736 118.10749073617626,126.23668535887555 119.0813080968801,125.92503107595257 120.33073414466344,126.04489817796275 121.58016019233037,125.78119043777406 121.81902105442714,125.49350878268888 121.61690801731311,125.13390600384446 122.03950800409075,125.70927007129649 123.54616882628761,126.02092476459802 123.01332536479458,124.46264537214302 124.79559487407096,123.45574926967674 125.62242093507666,121.6337310738163 128.74598605453502,119.81169262157346 129.62793385284021,118.97258915346174 130.0321599271847,117.58206537592923 130.65687295095995,117.39026806688344 128.67249040456954,117.24641993785917 130.56500338867772,117.48616674954246 130.14240340190008,117.60604002373293 129.9219164523529,118.10950681833492 129.79329906508792,116.83884955318354 130.10565557703376,116.38332851190353 125.9347774470225,115.97575598066032 125.01608182373457,116.40730333510146 112.65043873351533,113.4823490150593 112.63206482108217,114.2255800601124 110.55581271229312,113.79402696047327 107.74460410489701,112.13972955050122 103.4818564124871,105.92997143532557 100.54203041782603,100.91883675591089 100.32154346827883,98.35326830016857 101.01975214190315,92.09503094483807 101.09324779175222,87.27530591216055" stroke="#4dd2ff" stroke-linecap="round" stroke-linejoin="round" stroke-width="0.5"><title>2022-12-10 15.3km</title></polyline><polyline fill="none" points="153.86972255725414,220.70636945914885 150.01351025339682,221.72753588602063 144.28130277444143,221.38714757651906 143.89047044632025,214.9196748030081 146.88685162831098,213.7963585229154 147.22557297954336,213.11555813030282 145.66224366705865,209.67748562626366 142.61375150782987,209.13283580183634 141.70180940884165,208.14565473566472 137.14209891436622,207.94140985271952 128.77828709280584,203.78839156245522 127.3191797346808,204.29901257403253 125.26079613994807,204.19688846166537 123.61930036195554,204.97983884123096 121.63908323273063,204.80963246177998 120.28419782873243,203.9585986912134 118.69481302774511,203.9585986912134 116.87092882988509,205.1500450958556 114.96887816640083,205.35429243654653 114.94282267801464,205.04792135805474 113.87454764777794,205.25216878866195 112.54571773228236,204.74154987500515 111.94644149579108,205.49045723036397 110.09650180942845,199.46508861867187 108.61133896268439,198.34169749973807 107.12617611582391,195.72043039801065 104.07768395659514,193.84807861836453 101.7848009649897,193.33743460084952 97.40747889014892,193.84807861836453 95.03642943303566,192.52040183469944 92.06610373943113,193.84807861836453 92.30060313618742,194.15446448914008 91.85765983106103,193.91616440231155 91.7534378770506,194.32467868704407 89.43449939682614,194.69914948266523 89.1218335343292,195.95872863130353 85.68250904709566,195.68638777331216 84.97901085647754,196.40128184361674 82.24318455974571,195.07361967362522 82.03474065137561,193.7799928142049 79.92424607963767,192.96296160694328 78.8559710495174,190.54589410190238 78.46513872139622,190.54589410190238 78.93413751502521,190.88632766879164 77.34475271415431,190.81824099537334 77.81375150778331,190.7841976511554 77.00603136303835,191.36293382296572 77.3708082025405,191.46506358572515 75.72931242466439,191.15867416250694 73.28009650181048,191.56719330359192 68.0168878166005,189.89906894831802 66.89650180947501,190.54589410190238 64.8641737033613,190.20546003546042 63.95223160437308,190.95441432223015 63.40506634488702,190.68206758861197 60.51290711702313,191.3288905587542 59.131966224405915,190.75015430198982 57.594692400540225,191.56719330359192 56.96936067554634,190.71611094786203 56.08347406517714,190.47780732859974 53.84270205069333,192.11188437246892 51.47165259346366,192.07784121809527 51.888540410087444,192.99700463132467 52.07092882995494,197.2183009403234 51.05476477695629,203.7543501217151 49.41326899884734,206.71593677847704 48.60554885410238,211.48162903639604 46.833775633363985,214.9877544027404 46.78166465612594,216.8258960437961 46.0,218.39170891736285 46.18238841975108,218.86825856377254 47.82388419774361,219.58308119812864 49.282991556217894,218.83421933584032 51.02870928833727,218.9703762178833 51.7843184559606,218.28959100866632 52.2012062727008,218.56190533201152 51.888540410087444,219.10653301994898 52.487816646462306,219.31076807330828 53.790591073571704,218.6980623739655 54.884921592311,219.0724938269559 54.441978287068196,217.30244890671747 54.80675512657035,217.47264612049912 55.22364294331055,216.72377744583355 55.30180940881837,217.16629104576714 56.943305187043734,217.0301331049559 56.70880579017103,217.30244890671747 57.386248492170125,217.20033051844803 57.047527141170576,217.43860668767593 57.334137515048496,217.6088038016751 58.40241254528519,217.7109220100392 57.88130277453456,217.81304017353978 57.90735826303717,218.49382678121037 58.715078407665715,219.51500294690777 59.18407720141113,219.14057220803807 59.86151990352664,220.0255893440917 60.51290711702313,219.61712031626666 62.05018094088882,220.60425256930466 65.75006031361409,218.90229778675712 67.39155609172303,218.76614086485642 67.91266586247366,217.9491976548452 70.93510253319982,217.5066855482437 72.73293124255724,218.56190533201152 74.34837153193075,218.6980623739655 76.61519903503358,220.33194064306736 76.77153196628205,220.94464202746167 81.25307599513326,222.680620495943 83.20723763573915,224.45062438375317 84.92689987947233,224.3485091419716 88.02750301570632,227.139642910799 90.13799758744426,227.3438708925969 90.71121833543293,226.69714833356556 91.46682750305627,227.07156687698443 90.55488540418446,226.39080543952878 91.49288299155887,225.09735320515756 93.65548854041845,225.60792731693073 95.42726176115684,225.40369780710898 97.74620024126489,224.21235541616625 97.87647768389434,221.82965228156536 98.29336550063454,221.3190698546532 100.19541616400238,222.57850447502278 102.82702050672378,222.101962449844 107.36067551269662,223.9060092411528 108.16839565744158,223.9060092411528 110.27889022917952,222.44234971053083 112.15488540404476,222.44234971053083 111.1126658624271,223.19119992639753 111.08661037392449,224.0762016106455 110.07044632080942,224.6548547326529 109.67961399268825,225.6760037803906 110.51338962605223,224.89312324576895 112.15488540404476,224.51870118670922 112.8844390832819,225.60792731693073 113.48371531965677,225.43773607120966 114.4477683956502,221.35310871814727 116.79276236426085,224.31447071804723 118.4603136308724,224.99523824798234 119.24197828711476,227.3438708925969 121.50880579010118,226.79926254173915 121.92569360672496,225.57388907783024 122.52496984309983,225.43773607120966 123.15030156809371,226.6631102541287 126.2248492159415,228.67134839236678 126.12062726169825,229.79459265204787 126.53751507843845,230.10093105169653 129.5338962605456,228.6373106026149 132.63449939677957,229.38614082313143 134.87527141126338,228.29693243070506 136.80337756325025,228.77346173160186 137.06393244874198,227.48002278071363 139.46103739435785,227.3438708925969 139.74764776835218,225.8461948512704 143.7601930035744,225.09735320515756 144.6721351024462,221.557341793683 150.76911942090373,221.557341793683 154.0,220.57021359594364 153.7655006031273,219.75327673880383" stroke="#4dd2ff" stroke-linecap="round" stroke-linejoin="round" stroke-width="0.5"><title>2022-12-03 9.5km</title></polyline></svg>