<?xml version="1.0" encoding="utf-8" ?>
<svg baseProfile="full" height="300mm" version="1.1" viewBox="0,0,200,300" width="200mm" xmlns="http://www.w3.org/2000/svg" xmlns:ev="http://www.w3.org/2001/xml-events" xmlns:xlink="http://www.w3.org/1999/xlink"><defs /><rect fill="#222222" height="300" width="200" x="0" y="0" /><text fill="#FFFFFF" style="font-size:12px; font-family:Arial; font-weight:bold;" x="10" y="20">Over 10km Workouts</text><text fill="#FFFFFF" style="font-size:4px; font-family:Arial" x="10" y="280">ATHLETE</text><text fill="#FFFFFF" style="font-size:9px; font-family:Arial" x="10" y="290">kiss4u</text><text fill="#FFFFFF" style="font-size:4px; font-family:Arial" x="120" y="280">STATISTICS</text><text fill="#FFFFFF" style="font-size:3px; font-family:Arial" x="120" y="285">Number: 2</text><text fill="#FFFFFF" style="font-size:3px; font-family:Arial" x="120" y="290">Weekly: 1.0</text><text fill="#FFFFFF" style="font-size:3px; font-family:Arial" x="141" y="285">Total: 26.5 km</text><text fill="#FFFFFF" style="font-size:3px; font-family:Arial" x="141" y="290">Avg: 13.2 km</text><text fill="#FFFFFF" style="font-size:3px; font-family:Arial" x="167" y="285">Min: 11.2 km</text><text fill="#FFFFFF" style="font-size:3px; font-family:Arial" x="167" y="290">Max: 15.3 km</text><polyline fill="none" points="66.67408195394091,44.19551720075833 65.51491958694533,45.85624943410221 66.31529360217974,50.33294988285343 68.33002819202375,52.71567648365453 69.98597443045583,56.61463372569415 71.8351143966429,58.203080020524794 73.96024540252984,61.56044402583211 75.89218268054537,62.31855211939546 77.16174146311823,63.545960256044054 77.63092623068951,69.17751885989856 80.17004379618447,69.71900806669146 80.5012330438476,72.28204076134716 81.494800786837,74.01478008856066 83.70272910455242,74.9172436412482 87.18021620507352,75.35042496738606 87.12501799711026,77.19143707035983 89.85732929036021,80.76512700953754 89.6365364586236,81.84805307743954 88.6429687156342,82.38951431887108 88.1737839479465,84.01389087349526 86.82142785331234,85.85483796749031 86.32464398187585,87.69577124800708 86.93182426923886,88.99524524727894 85.91065742238425,89.78936485855957 86.40744129393715,91.08882776933024 88.72576602746267,91.63026861759135 89.02935617102776,92.53266737615922 88.06338753225282,93.14629663614323 89.00175706716254,92.49657148947881 90.29891495394986,93.43506281576992 91.09928896906786,95.78127542640141 90.87849613733124,99.42688435352466 93.85919936629944,102.71149551522103 92.9208298312733,104.01088999086642 88.28418036398944,104.87714915175457 88.1461848441977,105.59902944974601 89.25014900276437,106.46528300401405 89.44334273075219,107.29543979045411 89.19495079491753,107.87293850729475 88.06338753225282,108.23387451499002 87.89779290836304,108.88355799111014 89.25014900276437,110.32729289046256 91.8444647762226,108.66699702355254 92.5344423756469,107.6563766477193 94.52157786150929,108.08950017558527 94.57677606958896,109.20839908400376 93.66600563842803,110.25510634730745 93.85919936629944,111.51836778775032 96.09472678799648,112.67334398515231 96.83990259526763,114.15314929329907 96.70190707535949,114.51407606349676 96.03952858003322,114.18924199417233 95.9291321641067,115.01937264988373 94.13519040611573,113.64785092319653 95.98433037206996,116.3547943339363 97.17109184293076,117.32928665186046 98.08186227385886,117.14882540347753 99.51701568055432,119.96400576541782 97.88866854622029,122.05732407297182 97.612677506404,123.50098146733944 97.9990649621468,124.36717182731081 96.6191097634146,125.84690661953937 96.12232589186169,130.06951538128487 96.812303491286,131.11613366719394 97.66787571448367,130.89959231905232 97.8058712342754,131.80184667570575 99.48941657645628,133.20935684828146 103.04970098892227,133.1371770358819 102.91170546913054,132.6680077372439 103.35329113260377,132.59582776552998 99.87580403219908,133.3176265272632 97.91626765020192,132.01838722768298 97.36428557056934,130.75523131414957 96.97789811517578,131.22440426962567 98.35785331379157,133.35371640967787 97.22629005089402,133.78679458395345 96.59151065943297,132.70409771507548 96.89510080311447,132.41537774345488 96.39831693167798,133.1010871217295 96.9226999070961,132.12665743209072 97.08829453098588,133.24544674668869 96.48111424362287,133.57025559242174 96.64670886739623,132.6680077372439 97.3090873627225,133.35371640967787 96.67430797137786,133.67852511207457 97.612677506404,134.00333338456403 97.1986909469124,134.94166597927688 96.67430797137786,134.83339701677323 97.39188467466738,134.47250013038865 98.02666406601202,135.73563691096206 96.45351513964124,136.02435297657212 94.88036621327046,133.85897420540277 93.7212038465077,133.93115380559175 95.18395635683555,134.36423096092767 95.34955098072533,136.1687108820479 95.26675366878044,135.4108309311414 95.8187357482966,134.97775562279276 96.67430797137786,135.87999498625868 98.38545241754036,135.69954737891385 101.44895295845345,137.07094586716266 103.02210188494064,136.96267784404336 105.53362034645397,138.94758401157742 109.42509400646668,140.3189643499354 110.17026981373783,141.1129178855772 110.47385995741934,143.1338789317815 111.13623845262919,144.0 112.73698648309801,142.19557765848003 116.51806372730061,141.87078022809874 118.75359114899766,142.37602048962435 118.80878935696092,141.87078022809874 120.60273111506831,141.7986029629683 120.6855284270132,141.1490066216502 121.43070423440076,140.75203023328504 124.38380835927092,140.67985263912124 124.60460119100753,140.2106977597723 124.68739850295242,139.5971861796861 123.74902896792628,138.8393168164621 123.61103344813455,136.96267784404336 124.65979939897079,136.81832040562585 124.88059223082382,135.73563691096206 123.03145226463675,135.04993489386106 121.76189348183107,133.6063454374671 120.40953738731332,133.46198602476215 119.96795172372367,131.9822971488902 118.505199213163,130.5025993512536 115.93848254391924,125.91908857628005 117.37363595038187,122.49042218309478 118.94678487675264,121.44376710859069 119.22277591645252,118.52032756290282 122.72786212095525,115.34420562040759 122.42427197727375,114.7667244867771 123.39024061628152,110.97697082387458 122.39667287329212,108.95574493777531 123.19704688841011,106.79012729841634 124.65979939897079,105.34637158706028 123.41783972014673,103.61385352013167 123.1694477845449,100.94286419960554 123.99742090364452,99.60735863583977 124.99098864663392,99.60735863583977 125.5705698300153,99.02984046515485 127.80609725182876,93.43506281576992 128.41327753907535,93.39896706184663 129.98642646567896,91.70246064041567 130.86959779274184,88.99524524727894 131.80796732776798,87.91235072586278 132.0287601595046,86.7211612319079 129.79323273769114,85.9631285428186 129.76563363382593,85.2050935116713 131.25598524825182,84.12218226138793 131.47677808010485,83.40023877244676 133.46391356608365,83.3641415421589 134.4850804131711,80.76512700953754 134.04349474958144,79.64609838424076 133.3259180461755,79.3212181498966 134.07109385344665,77.55241821560776 132.88433238270227,75.16993284104683 133.3259180461755,72.85962189690326 131.86316553573124,70.91028011453454 131.00759331265,67.58914362505311 127.447308900184,65.35096106551646 126.01215549360495,66.03685789096926 124.35620925528929,65.60366011901351 121.5686997541925,65.82025910064112 118.06361354957335,64.77336225147883 117.1252440145472,63.0044574233325 115.55209508817643,62.82395621348405 113.97894616180565,60.946735757926945 112.40579723543487,61.30774080732954 111.71581963612698,59.7193146161444 109.81148146197665,59.79151602977072 107.32756210467778,59.10560174212151 106.52718808944337,59.53881098909187 103.27049382065888,57.481060252539464 102.16652966185939,54.159741947296425 99.87580403219908,52.896185131467064 98.35785331379157,50.91058269928908 98.05426316999365,47.08373994506837 95.43234829267021,44.015002150074 95.18395635683555,42.46256723008992 92.42404595972039,40.62129447099869 92.25845133583061,39.213253034758964 89.30534721096046,38.274554253483075 86.68343233352061,36.10831258560938 82.73676046542823,36.0 78.7900885976851,38.166242624487495 74.53982658602763,39.39377161939046 74.09824092232157,38.67169648403069 71.80751529254485,38.34676197952649 68.13683446438517,39.10494182030379 67.30886134516913,39.46597901592031 67.55725328088738,40.18805181303469 67.03287030546926,40.549087414488895 67.58485238498542,41.01843290179386 67.3916586569976,41.92101785336854 65.70811331493314,42.39036071552255" stroke="#ffff00" stroke-linecap="round" stroke-linejoin="round" stroke-width="0.5"><title>2023-02-25 11.2km</title></polyline><polyline fill="none" points="100.90950866718777,207.94671889401798 101.22186517901719,196.14863302456797 101.8833260278916,190.68093926394067 103.88608248683158,181.85550467757275 104.56591724802274,172.5738960814051 103.24299555050675,166.98549046755943 102.80202165117953,161.39689416639158 102.3242999271024,159.59794920508284 101.18511735415086,157.8949297672225 99.91731739393435,156.8395285513834 97.2898479111027,156.0 94.93798711535055,156.28783884529548 92.84336109424476,157.51114829380822 87.86403081566095,162.860021496861 86.24712651851587,165.76225178522873 85.62241349474061,168.32864398762467 85.27330915792845,175.7637588691723 85.82452653185464,178.64177724804904 85.76940479443874,178.35397768570692 85.53054393245839,178.49787753009878 85.62241349474061,178.01821089055738 87.14744822948705,183.34243185450032 87.33118735416792,181.7835562460532 86.90858736727387,181.6636421232106 86.8534656300908,181.97541865997482 87.05557866720483,181.11203602755268 86.63297868031077,180.5124620776187 87.44143082888331,182.7908314121014 86.98208301723935,185.33297452694387 80.18373540451284,193.12703534700267 75.42489207559265,196.31649792805547 73.58750082890037,197.94717661145842 70.151579197729,203.12687182650552 69.34312704904005,205.6447200726543 69.60036182356998,208.23446647256787 70.90490960876923,210.5843861149333 73.58750082890037,212.79040245513897 75.79237032495439,214.1331804683432 75.86586597480346,213.91737760126125 75.66375293768942,214.2770488885435 80.25723105436191,217.63394283130765 83.9687613727292,221.51826284902927 85.78777870698832,225.01886743739306 86.72484824270941,230.29360982567596 86.90858736727387,230.0778282405081 87.05557866720483,230.67722083091212 86.76159606769215,233.21862105978653 87.27606561675202,233.8899277474993 87.07395257952157,233.00284332617593 86.74322215514258,234.68110709900793 85.76940479443874,236.0716554910323 82.93982227449305,237.70193858005223 83.49103964865208,238.13348138907168 85.25493524537887,238.39720143511659 85.21818742051255,239.28425665742543 86.63297868031077,241.05835269833915 88.12126559019089,241.41796441969927 87.03720475465525,241.58578295301413 86.83509171754122,242.49679484948865 86.7983438926749,243.43177547758387 88.948091651313,244.72635523391364 87.69866560352966,247.3874037313799 93.90904801734723,253.47648730005312 90.2158916114131,255.37029000750044 89.94028292445,256.61683174698555 90.271013348829,258.6064844972425 91.83279590855818,260.2125721130433 92.60450023214798,260.18860077181307 92.78823935671244,261.43510586918273 94.47863930370659,262.6816014875949 94.23977844172623,263.1130785317364 94.60725669097155,263.32881662782165 94.46026539127342,263.8801460280083 95.37896101467777,263.3767583884037 95.6361957892077,264.0 96.49976967507973,263.7363211458578 96.4079001127975,263.44867100303236 98.07992614724208,263.5205835860397 98.70463917113375,262.58571754582226 100.52365650539286,261.0755380638584 102.17730862740427,261.33922119821364 102.30592601466924,260.90773948478454 101.6628390783444,259.90094440321263 101.42397821613122,258.7263423254335 101.53422169096302,258.3188253521512 102.41616948950104,258.41471178997017 101.73633472807705,257.4798166286637 103.16949990054127,256.59285987987823 104.49242159817368,256.3531410157593 104.97014332236722,255.20248558784078 105.77859547082335,255.20248558784078 107.37712585553527,254.43537748159724 110.18833446293138,254.12373878787912 111.6766213728115,252.15800414062687 111.62149963527918,251.15115531322954 112.06247353448998,250.6717013167363 112.3932039589854,250.5997830962442 112.66881264594849,251.34293651915505 112.35645613411907,250.52786484433454 113.03629089531023,250.88745578870294 114.54295171762351,250.50389208660636 114.02848216856364,250.3360826846474 114.74506475473754,250.00046336537343 114.92880387941841,249.40114144305699 116.61920382641256,248.8018173291348 117.04180381307378,246.57231238544045 116.76619512611069,245.78119043777406 117.35416032501962,245.87708421055868 117.66651683696546,245.58940272389736 118.10749073617626,246.23668535887555 119.0813080968801,245.92503107595257 120.33073414466344,246.04489817796275 121.58016019233037,245.78119043777406 121.81902105442714,245.49350878268888 121.61690801731311,245.13390600384446 122.03950800409075,245.7092700712965 123.54616882628761,246.02092476456892 123.01332536479458,244.46264537214302 124.79559487407096,243.45574926967674 125.62242093507666,241.63373107385996 128.74598605453502,239.8116926215298 129.62793385284021,238.97258915346174 130.0321599271847,237.58206537592923 130.65687295095995,237.39026806688344 128.67249040456954,237.24641993785917 130.56500338867772,237.48616674954246 130.14240340190008,237.60604002373293 129.9219164523529,238.10950681833492 129.79329906508792,236.8388495531981 130.10565557703376,236.38332851190353 125.9347774470225,235.97575598067488 125.01608182373457,236.40730333510146 112.65043873351533,233.4823490150593 112.63206482108217,234.2255800601124 110.55581271229312,233.79402696045872 107.74460410489701,232.13972955050122 103.4818564124871,225.9299714352819 100.54203041782603,220.9188367559109 100.32154346827883,218.35326830016857 101.01975214190315,212.09503094482352 101.09324779175222,207.27530591213144" stroke="#ff0000" stroke-linecap="round" stroke-linejoin="round" stroke-width="0.5"><title>2022-12-10 15.3km</title></polyline></svg>